ffmpeg started on 2025-06-19 at 11:55:19
Report written to "D:\Convert\FFMetrics\reports\psnr_report-6.txt"
Log level: 32
Command line:
ffmpeg -hide_banner -nostdin -i "G:\\\xc0\xed\xe8\xec\xe5\\[\xd2\xee\xef-4]\\Fate\\\xc0\xef\xee\xea\xf0\xe8\xf4\\Fate_Apocrypha_[11]_[AniLibria_TV]_[HDTVRip_720p]_HEVC.mkv" -i "G:\\\xc0\xed\xe8\xec\xe5\\[\xd2\xee\xef-4]\\Fate\\\xc0\xef\xee\xea\xf0\xe8\xf4\\Fate_Apocrypha_[11]_[AniLibria_TV]_[HDTVRip_720p].mkv" -lavfi "[0:v]settb=AVTB,setpts=PTS-STARTPTS,format=pix_fmts=yuv420p10,fps=24000/1001,scale=1280:720:flags=bicubic[main];[1:v]settb=AVTB,setpts=PTS-STARTPTS,format=pix_fmts=yuv420p,fps=24000/1001,scale=1280:720:flags=bicubic[ref];[main][ref]psnr=eof_action=endall:stats_file='D\\:/Convert/FFMetrics/logs/psnr_logfile-6.txt'" -f null -
Input #0, matroska,webm, from 'G:\Аниме\[Топ-4]\Fate\Апокриф\Fate_Apocrypha_[11]_[AniLibria_TV]_[HDTVRip_720p]_HEVC.mkv':
  Metadata:
    ENCODER         : Lavf61.7.100
  Duration: 00:24:00.13, start: -0.021000, bitrate: 765 kb/s
  Stream #0:0(jpn): Video: hevc (Main 10), yuv420p10le(tv, bt709, progressive), 1280x720 [SAR 1:1 DAR 16:9], 23.81 fps, 23.81 tbr, 1k tbn (default)
      Metadata:
        ENCODER         : Lavc61.19.100 libx265
        BPS             : 566572
        DURATION        : 00:24:00.012000000
        NUMBER_OF_FRAMES: 34525
        NUMBER_OF_BYTES : 101983893
        _STATISTICS_WRITING_APP: mkvpropedit v66.0.0 ('Josie') 64-bit
        _STATISTICS_WRITING_DATE_UTC: 2025-06-16 16:27:21
        _STATISTICS_TAGS: BPS DURATION NUMBER_OF_FRAMES NUMBER_OF_BYTES
  Stream #0:1(rus): Audio: aac (LC), 48000 Hz, stereo, fltp (default)
      Metadata:
        title           : Ados Amikiri Anzen Hekomi Silv
        ENCODER         : Lavc61.19.100 aac
        BPS             : 194382
        DURATION        : 00:24:00.107000000
        NUMBER_OF_FRAMES: 67506
        NUMBER_OF_BYTES : 34991469
        _STATISTICS_WRITING_APP: mkvpropedit v66.0.0 ('Josie') 64-bit
        _STATISTICS_WRITING_DATE_UTC: 2025-06-16 16:27:21
        _STATISTICS_TAGS: BPS DURATION NUMBER_OF_FRAMES NUMBER_OF_BYTES
  Stream #0:2(rus): Subtitle: ass (ssa) (default) (forced)
      Metadata:
        title           : Надписи
        BPS             : 154
        DURATION        : 00:21:48.550000000
        NUMBER_OF_FRAMES: 188
        NUMBER_OF_BYTES : 25191
        _STATISTICS_WRITING_APP: mkvpropedit v66.0.0 ('Josie') 64-bit
        _STATISTICS_WRITING_DATE_UTC: 2025-06-16 16:27:21
        _STATISTICS_TAGS: BPS DURATION NUMBER_OF_FRAMES NUMBER_OF_BYTES
  Stream #0:3(rus): Subtitle: ass (ssa)
      Metadata:
        title           : Полные
        BPS             : 245
        DURATION        : 00:23:30.520000000
        NUMBER_OF_FRAMES: 413
        NUMBER_OF_BYTES : 43202
        _STATISTICS_WRITING_APP: mkvpropedit v66.0.0 ('Josie') 64-bit
        _STATISTICS_WRITING_DATE_UTC: 2025-06-16 16:27:21
        _STATISTICS_TAGS: BPS DURATION NUMBER_OF_FRAMES NUMBER_OF_BYTES
Input #1, matroska,webm, from 'G:\Аниме\[Топ-4]\Fate\Апокриф\Fate_Apocrypha_[11]_[AniLibria_TV]_[HDTVRip_720p].mkv':
  Metadata:
    encoder         : libebml v1.3.0 + libmatroska v1.4.1
    creation_time   : 2017-09-12T16:23:35.000000Z
  Duration: 00:24:00.11, start: 0.000000, bitrate: 2547 kb/s
  Stream #1:0: Video: h264 (Main), yuv420p(tv, bt709, progressive), 1280x720, SAR 1:1 DAR 16:9, 23.81 fps, 23.81 tbr, 1k tbn (default)
      Metadata:
        BPS             : 2136148
        BPS-eng         : 2136148
        DURATION        : 00:24:00.020000000
        DURATION-eng    : 00:24:00.020000000
        NUMBER_OF_FRAMES: 34525
        NUMBER_OF_FRAMES-eng: 34525
        NUMBER_OF_BYTES : 384512029
        NUMBER_OF_BYTES-eng: 384512029
        _STATISTICS_WRITING_APP: mkvmerge v7.3.0 ('Nouages') 64bit built on Oct 22 2014 18:53:34
        _STATISTICS_WRITING_APP-eng: mkvmerge v7.3.0 ('Nouages') 64bit built on Oct 22 2014 18:53:34
        _STATISTICS_WRITING_DATE_UTC: 2017-09-12 16:23:35
        _STATISTICS_WRITING_DATE_UTC-eng: 2017-09-12 16:23:35
        _STATISTICS_TAGS: BPS DURATION NUMBER_OF_FRAMES NUMBER_OF_BYTES
        _STATISTICS_TAGS-eng: BPS DURATION NUMBER_OF_FRAMES NUMBER_OF_BYTES
  Stream #1:1(rus): Audio: aac (LC), 48000 Hz, stereo, fltp (default)
      Metadata:
        title           : Ados Amikiri Anzen Hekomi Silv
        BPS             : 192092
        BPS-eng         : 192092
        DURATION        : 00:24:00.106000000
        DURATION-eng    : 00:24:00.106000000
        NUMBER_OF_FRAMES: 67505
        NUMBER_OF_FRAMES-eng: 67505
        NUMBER_OF_BYTES : 34579152
        NUMBER_OF_BYTES-eng: 34579152
        _STATISTICS_WRITING_APP: mkvmerge v7.3.0 ('Nouages') 64bit built on Oct 22 2014 18:53:34
        _STATISTICS_WRITING_APP-eng: mkvmerge v7.3.0 ('Nouages') 64bit built on Oct 22 2014 18:53:34
        _STATISTICS_WRITING_DATE_UTC: 2017-09-12 16:23:35
        _STATISTICS_WRITING_DATE_UTC-eng: 2017-09-12 16:23:35
        _STATISTICS_TAGS: BPS DURATION NUMBER_OF_FRAMES NUMBER_OF_BYTES
        _STATISTICS_TAGS-eng: BPS DURATION NUMBER_OF_FRAMES NUMBER_OF_BYTES
  Stream #1:2(jpn): Audio: aac (LC), 48000 Hz, stereo, fltp
      Metadata:
        title           : Оригинал
        BPS             : 214064
        BPS-eng         : 214064
        DURATION        : 00:24:00.085000000
        DURATION-eng    : 00:24:00.085000000
        NUMBER_OF_FRAMES: 67504
        NUMBER_OF_FRAMES-eng: 67504
        NUMBER_OF_BYTES : 38533866
        NUMBER_OF_BYTES-eng: 38533866
        _STATISTICS_WRITING_APP: mkvmerge v7.3.0 ('Nouages') 64bit built on Oct 22 2014 18:53:34
        _STATISTICS_WRITING_APP-eng: mkvmerge v7.3.0 ('Nouages') 64bit built on Oct 22 2014 18:53:34
        _STATISTICS_WRITING_DATE_UTC: 2017-09-12 16:23:35
        _STATISTICS_WRITING_DATE_UTC-eng: 2017-09-12 16:23:35
        _STATISTICS_TAGS: BPS DURATION NUMBER_OF_FRAMES NUMBER_OF_BYTES
        _STATISTICS_TAGS-eng: BPS DURATION NUMBER_OF_FRAMES NUMBER_OF_BYTES
  Stream #1:3(rus): Subtitle: ass (ssa) (default) (forced)
      Metadata:
        title           : Надписи
        BPS             : 154
        BPS-eng         : 154
        DURATION        : 00:21:48.550000000
        DURATION-eng    : 00:21:48.550000000
        NUMBER_OF_FRAMES: 188
        NUMBER_OF_FRAMES-eng: 188
        NUMBER_OF_BYTES : 25191
        NUMBER_OF_BYTES-eng: 25191
        _STATISTICS_WRITING_APP: mkvmerge v7.3.0 ('Nouages') 64bit built on Oct 22 2014 18:53:34
        _STATISTICS_WRITING_APP-eng: mkvmerge v7.3.0 ('Nouages') 64bit built on Oct 22 2014 18:53:34
        _STATISTICS_WRITING_DATE_UTC: 2017-09-12 16:23:35
        _STATISTICS_WRITING_DATE_UTC-eng: 2017-09-12 16:23:35
        _STATISTICS_TAGS: BPS DURATION NUMBER_OF_FRAMES NUMBER_OF_BYTES
        _STATISTICS_TAGS-eng: BPS DURATION NUMBER_OF_FRAMES NUMBER_OF_BYTES
  Stream #1:4(rus): Subtitle: ass (ssa)
      Metadata:
        title           : Полные
        BPS             : 245
        BPS-eng         : 245
        DURATION        : 00:23:30.520000000
        DURATION-eng    : 00:23:30.520000000
        NUMBER_OF_FRAMES: 413
        NUMBER_OF_FRAMES-eng: 413
        NUMBER_OF_BYTES : 43202
        NUMBER_OF_BYTES-eng: 43202
        _STATISTICS_WRITING_APP: mkvmerge v7.3.0 ('Nouages') 64bit built on Oct 22 2014 18:53:34
        _STATISTICS_WRITING_APP-eng: mkvmerge v7.3.0 ('Nouages') 64bit built on Oct 22 2014 18:53:34
        _STATISTICS_WRITING_DATE_UTC: 2017-09-12 16:23:35
        _STATISTICS_WRITING_DATE_UTC-eng: 2017-09-12 16:23:35
        _STATISTICS_TAGS: BPS DURATION NUMBER_OF_FRAMES NUMBER_OF_BYTES
        _STATISTICS_TAGS-eng: BPS DURATION NUMBER_OF_FRAMES NUMBER_OF_BYTES
  Stream #1:5: Attachment: ttf
      Metadata:
        filename        : 9511(1).ttf
        mimetype        : application/x-truetype-font
  Stream #1:6: Attachment: ttf
      Metadata:
        filename        : ALBR.ttf
        mimetype        : application/x-truetype-font
Stream mapping:
  Stream #0:0 (hevc) -> settb:default
  Stream #1:0 (h264) -> settb:default
  psnr:default -> Stream #0:0 (wrapped_avframe)
  Stream #0:1 -> #0:1 (aac (native) -> pcm_s16le (native))
Output #0, null, to 'pipe:':
  Metadata:
    encoder         : Lavf61.7.100
  Stream #0:0: Video: wrapped_avframe, yuv420p10le(tv, bt709, progressive), 1280x720 [SAR 1:1 DAR 16:9], q=2-31, 200 kb/s, 23.98 fps, 23.98 tbn
      Metadata:
        encoder         : Lavc61.19.100 wrapped_avframe
  Stream #0:1(rus): Audio: pcm_s16le, 48000 Hz, stereo, s16, 1536 kb/s (default)
      Metadata:
        title           : Ados Amikiri Anzen Hekomi Silv
        _STATISTICS_TAGS: BPS DURATION NUMBER_OF_FRAMES NUMBER_OF_BYTES
        BPS             : 194382
        DURATION        : 00:24:00.107000000
        NUMBER_OF_FRAMES: 67506
        NUMBER_OF_BYTES : 34991469
        _STATISTICS_WRITING_APP: mkvpropedit v66.0.0 ('Josie') 64-bit
        _STATISTICS_WRITING_DATE_UTC: 2025-06-16 16:27:21
        encoder         : Lavc61.19.100 pcm_s16le
frame=  405 fps=0.0 q=-0.0 size=N/A time=00:00:16.89 bitrate=N/A speed=33.2x    frame=  904 fps=883 q=-0.0 size=N/A time=00:00:37.70 bitrate=N/A speed=36.8x    frame= 1383 fps=892 q=-0.0 size=N/A time=00:00:57.68 bitrate=N/A speed=37.2x    frame= 1851 fps=890 q=-0.0 size=N/A time=00:01:17.20 bitrate=N/A speed=37.1x    frame= 2357 fps=911 q=-0.0 size=N/A time=00:01:38.30 bitrate=N/A speed=  38x    frame= 2846 fps=915 q=-0.0 size=N/A time=00:01:58.70 bitrate=N/A speed=38.2x    frame= 3187 fps=881 q=-0.0 size=N/A time=00:02:12.92 bitrate=N/A speed=36.7x    frame= 3644 fps=883 q=-0.0 size=N/A time=00:02:31.98 bitrate=N/A speed=36.8x    frame= 4106 fps=882 q=-0.0 size=N/A time=00:02:51.25 bitrate=N/A speed=36.8x    frame= 4514 fps=874 q=-0.0 size=N/A time=00:03:08.27 bitrate=N/A speed=36.5x    frame= 4886 fps=859 q=-0.0 size=N/A time=00:03:23.78 bitrate=N/A speed=35.8x    frame= 5344 fps=862 q=-0.0 size=N/A time=00:03:42.88 bitrate=N/A speed=35.9x    frame= 5825 fps=868 q=-0.0 size=N/A time=00:04:02.95 bitrate=N/A speed=36.2x    frame= 6237 fps=863 q=-0.0 size=N/A time=00:04:20.13 bitrate=N/A speed=  36x    frame= 6787 fps=876 q=-0.0 size=N/A time=00:04:43.07 bitrate=N/A speed=36.5x    frame= 7423 fps=899 q=-0.0 size=N/A time=00:05:09.60 bitrate=N/A speed=37.5x    frame= 7965 fps=907 q=-0.0 size=N/A time=00:05:32.20 bitrate=N/A speed=37.8x    frame= 8428 fps=907 q=-0.0 size=N/A time=00:05:51.51 bitrate=N/A speed=37.8x    frame= 8914 fps=908 q=-0.0 size=N/A time=00:06:11.78 bitrate=N/A speed=37.9x    frame= 9237 fps=895 q=-0.0 size=N/A time=00:06:25.25 bitrate=N/A speed=37.3x    frame= 9710 fps=896 q=-0.0 size=N/A time=00:06:44.98 bitrate=N/A speed=37.4x    frame=10062 fps=886 q=-0.0 size=N/A time=00:06:59.66 bitrate=N/A speed=36.9x    frame=10366 fps=873 q=-0.0 size=N/A time=00:07:12.34 bitrate=N/A speed=36.4x    frame=10898 fps=880 q=-0.0 size=N/A time=00:07:34.53 bitrate=N/A speed=36.7x    frame=11364 fps=880 q=-0.0 size=N/A time=00:07:53.97 bitrate=N/A speed=36.7x    frame=11847 fps=883 q=-0.0 size=N/A time=00:08:14.11 bitrate=N/A speed=36.8x    frame=12226 fps=877 q=-0.0 size=N/A time=00:08:29.92 bitrate=N/A speed=36.6x    frame=12709 fps=879 q=-0.0 size=N/A time=00:08:50.07 bitrate=N/A speed=36.7x    frame=13234 fps=883 q=-0.0 size=N/A time=00:09:11.96 bitrate=N/A speed=36.8x    frame=13653 fps=881 q=-0.0 size=N/A time=00:09:29.44 bitrate=N/A speed=36.8x    frame=14139 fps=883 q=-0.0 size=N/A time=00:09:49.71 bitrate=N/A speed=36.8x    frame=14519 fps=878 q=-0.0 size=N/A time=00:10:05.56 bitrate=N/A speed=36.6x    frame=15091 fps=885 q=-0.0 size=N/A time=00:10:29.42 bitrate=N/A speed=36.9x    frame=15628 fps=890 q=-0.0 size=N/A time=00:10:51.81 bitrate=N/A speed=37.1x    frame=16268 fps=900 q=-0.0 size=N/A time=00:11:18.51 bitrate=N/A speed=37.5x    frame=16857 fps=907 q=-0.0 size=N/A time=00:11:43.07 bitrate=N/A speed=37.8x    frame=17432 fps=912 q=-0.0 size=N/A time=00:12:07.05 bitrate=N/A speed=  38x    frame=17717 fps=903 q=-0.0 size=N/A time=00:12:18.94 bitrate=N/A speed=37.6x    frame=18028 fps=895 q=-0.0 size=N/A time=00:12:31.91 bitrate=N/A speed=37.3x    frame=18336 fps=888 q=-0.0 size=N/A time=00:12:44.76 bitrate=N/A speed=  37x    frame=18742 fps=886 q=-0.0 size=N/A time=00:13:01.69 bitrate=N/A speed=36.9x    frame=19244 fps=887 q=-0.0 size=N/A time=00:13:22.63 bitrate=N/A speed=  37x    frame=19742 fps=889 q=-0.0 size=N/A time=00:13:43.40 bitrate=N/A speed=37.1x    frame=20079 fps=884 q=-0.0 size=N/A time=00:13:57.46 bitrate=N/A speed=36.9x    frame=20493 fps=882 q=-0.0 size=N/A time=00:14:14.72 bitrate=N/A speed=36.8x    frame=20891 fps=880 q=-0.0 size=N/A time=00:14:31.32 bitrate=N/A speed=36.7x    frame=21380 fps=881 q=-0.0 size=N/A time=00:14:51.72 bitrate=N/A speed=36.8x    frame=21963 fps=886 q=-0.0 size=N/A time=00:15:16.04 bitrate=N/A speed=  37x    frame=22450 fps=888 q=-0.0 size=N/A time=00:15:36.35 bitrate=N/A speed=  37x    frame=22895 fps=887 q=-0.0 size=N/A time=00:15:54.91 bitrate=N/A speed=  37x    frame=23357 fps=887 q=-0.0 size=N/A time=00:16:14.18 bitrate=N/A speed=  37x    frame=23806 fps=887 q=-0.0 size=N/A time=00:16:32.90 bitrate=N/A speed=  37x    frame=24297 fps=888 q=-0.0 size=N/A time=00:16:53.38 bitrate=N/A speed=  37x    frame=24773 fps=889 q=-0.0 size=N/A time=00:17:13.24 bitrate=N/A speed=37.1x    frame=25230 fps=889 q=-0.0 size=N/A time=00:17:32.30 bitrate=N/A speed=37.1x    frame=25760 fps=891 q=-0.0 size=N/A time=00:17:54.40 bitrate=N/A speed=37.2x    frame=26271 fps=893 q=-0.0 size=N/A time=00:18:15.71 bitrate=N/A speed=37.2x    frame=26761 fps=894 q=-0.0 size=N/A time=00:18:36.15 bitrate=N/A speed=37.3x    frame=27153 fps=892 q=-0.0 size=N/A time=00:18:52.50 bitrate=N/A speed=37.2x    frame=27547 fps=889 q=-0.0 size=N/A time=00:19:08.93 bitrate=N/A speed=37.1x    frame=28012 fps=890 q=-0.0 size=N/A time=00:19:28.33 bitrate=N/A speed=37.1x    frame=28467 fps=890 q=-0.0 size=N/A time=00:19:47.31 bitrate=N/A speed=37.1x    frame=29004 fps=892 q=-0.0 size=N/A time=00:20:09.70 bitrate=N/A speed=37.2x    frame=29648 fps=898 q=-0.0 size=N/A time=00:20:36.56 bitrate=N/A speed=37.4x    frame=30232 fps=901 q=-0.0 size=N/A time=00:21:00.92 bitrate=N/A speed=37.6x    frame=30919 fps=908 q=-0.0 size=N/A time=00:21:29.57 bitrate=N/A speed=37.9x    frame=31532 fps=912 q=-0.0 size=N/A time=00:21:55.14 bitrate=N/A speed=  38x    frame=32029 fps=913 q=-0.0 size=N/A time=00:22:15.87 bitrate=N/A speed=38.1x    frame=32432 fps=911 q=-0.0 size=N/A time=00:22:32.68 bitrate=N/A speed=  38x    frame=32775 fps=907 q=-0.0 size=N/A time=00:22:46.99 bitrate=N/A speed=37.8x    frame=33249 fps=907 q=-0.0 size=N/A time=00:23:06.76 bitrate=N/A speed=37.8x    frame=33604 fps=904 q=-0.0 size=N/A time=00:23:21.56 bitrate=N/A speed=37.7x    frame=33932 fps=900 q=-0.0 size=N/A time=00:23:35.24 bitrate=N/A speed=37.6x    frame=34264 fps=897 q=-0.0 size=N/A time=00:23:49.09 bitrate=N/A speed=37.4x    [Parsed_psnr_10 @ 000001f1cb65f980] PSNR y:41.264375 u:48.368925 v:48.944649 average:42.645669 min:10.043857 max:61.780961
[out#0/null @ 000001f1bf6e6a40] video:14835KiB audio:270024KiB subtitle:0KiB other streams:0KiB global headers:0KiB muxing overhead: unknown
frame=34526 fps=899 q=-0.0 Lsize=N/A time=00:24:00.02 bitrate=N/A speed=37.5x    
